<?xml version="1.0" standalone="no"?>
<!DOCTYPE svg PUBLIC "-//W3C//DTD SVG 20010904//EN"
 "http://www.w3.org/TR/2001/REC-SVG-20010904/DTD/svg10.dtd">
<svg version="1.0" xmlns="http://www.w3.org/2000/svg"
 width="1319.000000pt" height="1319.000000pt" viewBox="0 0 1319.000000 1319.000000"
 preserveAspectRatio="xMidYMid meet">
<metadata>
Created by potrace 1.14, written by Peter Selinger 2001-2017
</metadata>
<g transform="translate(0.000000,1319.000000) scale(0.100000,-0.100000)"
fill="#000000" stroke="none">
<path d="M4108 13175 c-2 -1 -31 -5 -65 -8 -280 -27 -537 -256 -608 -542 -19
-75 -25 -218 -12 -300 24 -149 104 -293 237 -421 86 -83 133 -169 137 -252 2
-48 -1 -58 -27 -83 -24 -24 -37 -29 -82 -30 -29 0 -500 0 -1045 -1 l-993 0 0
-1062 0 -1063 23 -44 c58 -109 219 -125 366 -34 31 19 98 75 149 124 72 70
112 100 175 131 389 192 823 -27 914 -460 13 -59 4 -182 -17 -252 -28 -93 -51
-139 -108 -213 -242 -320 -704 -335 -982 -32 -171 186 -416 222 -499 72 -17
-32 -23 -553 -33 -3115 -4 -1127 -1 -1066 -60 -1091 -39 -16 -113 -7 -172 22
-29 13 -86 59 -135 107 -105 103 -177 153 -277 193 -271 109 -568 50 -775
-153 -70 -68 -101 -110 -143 -195 -41 -83 -45 -94 -68 -208 -13 -65 -4 -235
17 -305 94 -320 373 -532 700 -532 198 0 356 69 528 230 105 100 155 133 217
148 33 7 43 8 89 5 11 0 32 -12 48 -25 l28 -24 1 -1044 c1 -573 2 -1045 3
-1048 0 -3 479 -5 1064 -5 1010 1 1064 2 1097 19 45 25 57 37 80 88 36 79 20
186 -42 285 -18 28 -74 94 -124 146 -71 74 -99 112 -131 178 -106 217 -92 438
42 639 59 89 139 159 240 210 232 117 488 81 684 -96 144 -131 212 -290 206
-484 -3 -113 -5 -128 -31 -199 -38 -101 -73 -152 -190 -274 -128 -134 -177
-250 -153 -365 12 -58 45 -104 93 -129 28 -16 117 -17 1053 -18 562 0 1025 -4
1029 -8 4 -4 472 -7 1040 -7 633 0 1042 -4 1058 -10 60 -22 69 -125 20 -222
-14 -28 -65 -92 -114 -142 -135 -140 -188 -234 -225 -399 -16 -73 -12 -234 8
-314 54 -218 215 -405 425 -493 64 -27 83 -33 162 -46 187 -32 394 20 549 137
194 147 295 357 287 599 -4 120 -22 192 -71 295 -41 85 -69 122 -175 231 -85
89 -124 153 -134 226 -9 59 12 114 49 128 17 6 400 10 1061 10 l1034 0 1 653
c0 358 0 838 1 1065 l0 412 -26 44 c-43 74 -137 106 -241 81 -86 -20 -151 -61
-263 -168 -121 -113 -207 -165 -325 -192 -63 -14 -186 -20 -249 -11 -88 13
-222 77 -313 151 -40 32 -125 137 -125 153 0 6 -3 12 -7 14 -10 4 -48 90 -62
138 -63 214 11 460 185 620 180 166 458 211 677 112 89 -41 136 -75 240 -176
107 -104 187 -147 289 -154 59 -4 75 -1 122 22 44 22 59 36 76 72 l22 45 0
1007 c0 554 4 1012 8 1017 4 6 8 478 8 1050 l0 1039 32 29 c30 27 38 29 90 24
82 -7 150 -46 249 -143 174 -171 352 -247 565 -239 473 17 797 464 669 925
-46 164 -174 331 -322 417 -126 74 -214 97 -366 97 -157 1 -206 -10 -328 -70
-88 -44 -124 -71 -222 -167 -79 -78 -128 -111 -196 -133 -63 -19 -127 -7 -159
30 -10 13 -12 221 -12 1061 0 575 -3 1046 -7 1046 -3 1 -474 2 -1046 3 -1108
2 -1100 3 -1152 -46 -61 -57 -76 -159 -39 -263 29 -79 56 -118 163 -229 65
-68 99 -113 126 -167 48 -99 47 -96 66 -192 64 -326 -179 -669 -513 -728 -260
-45 -536 99 -655 343 -54 110 -71 189 -67 308 6 168 64 295 194 429 138 141
182 222 188 341 4 91 -51 178 -124 197 -15 4 -485 7 -1044 8 -560 0 -1018 3
-1018 7 0 3 -467 6 -1038 6 -769 0 -1044 3 -1060 11 -31 17 -53 75 -47 125 9
69 55 144 144 235 125 127 180 220 220 369 16 59 19 97 16 195 -2 71 -9 141
-18 168 -89 273 -283 458 -537 513 -69 15 -185 28 -192 21z"/>
</g>
</svg>
